<svg width="40" height="40" viewBox="0 0 40 40" fill="none" xmlns="http://www.w3.org/2000/svg">
<rect x="0.5" y="0.5" width="39" height="39" rx="7.5" stroke="#DDDDDD"/>
<path d="M16.0843 28.0184C16.0568 28.0184 16.0208 28.0364 15.9943 28.0364C14.2441 27.1639 12.8255 25.7453 11.953 23.9951C11.953 23.9677 11.971 23.9326 11.971 23.9004C13.0739 24.2199 14.195 24.473 15.3283 24.6582C15.5169 25.7905 15.7699 26.9111 16.0862 28.0146L16.0843 28.0184Z" fill="#6A6A6A"/>
<path d="M28.0461 24.0047C27.1443 25.8007 25.6724 27.2469 23.8608 28.117C24.2082 26.9839 24.4819 25.8296 24.6803 24.6612C25.8106 24.4769 26.9286 24.2238 28.0281 23.9033C28.0186 23.9412 28.0461 23.9772 28.0461 24.0047Z" fill="#6A6A6A"/>
<path d="M28.1181 16.1391C26.9902 15.795 25.8421 15.5214 24.6803 15.3197C24.4882 14.1559 24.2143 13.0071 23.8608 11.8818C25.7244 12.7732 27.2267 14.2755 28.1181 16.1391Z" fill="#6A6A6A"/>
<path d="M16.0852 11.9806C15.7685 13.0803 15.5192 14.1983 15.3388 15.3284C14.1697 15.5193 13.0151 15.7899 11.8829 16.1384C12.753 14.3268 14.1992 12.8549 15.9952 11.9531C16.0218 11.9531 16.0578 11.9806 16.0852 11.9806Z" fill="#6A6A6A"/>
<path d="M23.1418 15.1313C21.0544 14.8973 18.9475 14.8973 16.8601 15.1313C17.0755 13.8911 17.3823 12.6686 17.7781 11.4737C17.7883 11.4094 17.7944 11.3445 17.7961 11.2795C18.5175 11.0991 19.2578 11.0053 20.0014 11C20.7419 11.0053 21.4791 11.0991 22.1973 11.2795C22.2017 11.346 22.2106 11.4121 22.2238 11.4774C22.6183 12.6714 22.9251 13.8926 23.1418 15.1313Z" fill="#6A6A6A"/>
<path d="M15.1313 23.142C13.8909 22.9277 12.6683 22.6208 11.4737 22.2241C11.4081 22.2136 11.342 22.2076 11.2757 22.2061C11.0966 21.4848 11.0041 20.7448 11 20.0017C11.0053 19.2612 11.0991 18.524 11.2795 17.8058C11.3447 17.8009 11.4096 17.7917 11.4737 17.7783C12.6685 17.387 13.8895 17.0802 15.1275 16.8604C14.9025 18.9482 14.9025 21.0542 15.1275 23.142H15.1313Z" fill="#6A6A6A"/>
<path d="M28.9999 20.0012C28.995 20.7448 28.9015 21.4851 28.7214 22.2066C28.6551 22.2081 28.589 22.2141 28.5234 22.2246C27.3282 22.6148 26.1074 22.9216 24.8696 23.1425C25.1036 21.0552 25.1036 18.9482 24.8696 16.8608C26.1085 17.0764 27.3298 17.3833 28.5234 17.7788C28.588 17.7964 28.6545 17.8054 28.7214 17.8053C28.9009 18.5237 28.9944 19.2608 28.9999 20.0012Z" fill="#6A6A6A"/>
<path d="M23.1418 24.8687C22.9273 26.1078 22.6204 27.3291 22.2238 28.5225C22.2106 28.5878 22.2017 28.6539 22.1973 28.7204C21.4791 28.9005 20.7419 28.994 20.0014 28.999C19.2578 28.994 18.5175 28.9005 17.7961 28.7204C17.7945 28.6541 17.7885 28.588 17.7781 28.5225C17.3867 27.3276 17.08 26.1066 16.8601 24.8687C17.9027 24.9932 18.9514 25.0593 20.0014 25.0666C21.0514 25.0595 22.1002 24.9934 23.1427 24.8687H23.1418Z" fill="#6A6A6A"/>
<path d="M23.3862 23.3862C21.1374 23.6702 18.8617 23.6702 16.6129 23.3862C16.3289 21.1374 16.3289 18.8617 16.6129 16.6129C18.8617 16.3289 21.1374 16.3289 23.3862 16.6129C23.6702 18.8617 23.6702 21.1374 23.3862 23.3862Z" fill="#6A6A6A"/>
</svg>
