<svg width="76" height="40" viewBox="0 0 76 40" fill="none" xmlns="http://www.w3.org/2000/svg">
<rect x="0.5" y="0.5" width="75" height="39" rx="7.5" stroke="#DDDDDD"/>
<rect x="17" y="19.5" width="16" height="1" rx="0.5" fill="#6A6A6A"/>
<rect x="19" y="15" width="12" height="1" rx="0.5" fill="#6A6A6A"/>
<rect x="19" y="24" width="12" height="1" rx="0.5" fill="#6A6A6A"/>
<path d="M56.25 20.36C57.4926 20.36 58.5 21.3271 58.5 22.52V23.24C58.5 26 58.5 29 51 29C43.5 29 43.5 26 43.5 23.24V22.52C43.5 21.3271 44.5074 20.36 45.75 20.36H56.25ZM51 11C53.2782 11 55.125 12.773 55.125 14.96C55.125 17.147 53.2782 18.92 51 18.92C48.7218 18.92 46.875 17.147 46.875 14.96C46.875 12.773 48.7218 11 51 11Z" fill="#6A6A6A"/>
</svg>
