<svg width="18" height="18" viewBox="0 0 18 18" fill="none" xmlns="http://www.w3.org/2000/svg">
<path d="M16.7267 15.4633L13.9265 12.661C14.8749 11.4316 15.4531 9.90395 15.4531 8.23164C15.4531 4.2452 12.2102 1 8.22654 1C4.24291 1 1 4.2452 1 8.23164C1 12.2181 4.24291 15.4633 8.22654 15.4633C9.89767 15.4633 11.4243 14.8938 12.6528 13.9356L15.4531 16.7379C15.6337 16.9186 15.8596 17 16.0944 17C16.3293 17 16.5551 16.9096 16.7358 16.7379C17.0881 16.3853 17.0881 15.8158 16.7358 15.4633H16.7267ZM2.80663 8.23164C2.80663 5.23955 5.23656 2.80791 8.22654 2.80791C11.2165 2.80791 13.6464 5.23955 13.6464 8.23164C13.6464 11.2237 11.2165 13.6554 8.22654 13.6554C5.23656 13.6554 2.80663 11.2237 2.80663 8.23164Z" fill="#6A6A6A"/>
</svg>
