<svg width="40" height="40" viewBox="0 0 40 40" fill="none" xmlns="http://www.w3.org/2000/svg">
<path d="M8.24264 1.75736C9.36786 0.63214 10.894 0 12.4853 0H20H27.5147C29.106 0 30.6321 0.632141 31.7574 1.75736L38.2426 8.24264C39.3679 9.36786 40 10.894 40 12.4853V20V27.5147C40 29.106 39.3679 30.6321 38.2426 31.7574L31.7574 38.2426C30.6321 39.3679 29.106 40 27.5147 40H20H12.4853C10.894 40 9.36786 39.3679 8.24264 38.2426L1.75736 31.7574C0.63214 30.6321 0 29.106 0 27.5147V20V12.4853C0 10.894 0.632141 9.36786 1.75736 8.24264L8.24264 1.75736Z" fill="#EE5253"/>
<path d="M8.91137 27V16.407L6.48137 17.892V15.498L8.91137 14.04H11.1254V27H8.91137ZM18.7929 27.27C17.9349 27.27 17.1729 27.096 16.5069 26.748C15.8409 26.4 15.3189 25.917 14.9409 25.299C14.5629 24.681 14.3739 23.973 14.3739 23.175C14.3739 22.461 14.5389 21.798 14.8689 21.186C15.1989 20.574 15.6819 20.085 16.3179 19.719L16.2729 20.412C15.7749 20.034 15.3879 19.599 15.1119 19.107C14.8419 18.609 14.7069 18.051 14.7069 17.433C14.7069 16.689 14.8809 16.044 15.2289 15.498C15.5829 14.952 16.0659 14.529 16.6779 14.229C17.2899 13.923 17.9949 13.77 18.7929 13.77C19.5909 13.77 20.2959 13.923 20.9079 14.229C21.5259 14.529 22.0089 14.952 22.3569 15.498C22.7109 16.044 22.8879 16.689 22.8879 17.433C22.8879 18.051 22.7559 18.606 22.4919 19.098C22.2339 19.59 21.8409 20.034 21.3129 20.43L21.3039 19.728C21.9279 20.082 22.4049 20.568 22.7349 21.186C23.0709 21.798 23.2389 22.461 23.2389 23.175C23.2389 23.973 23.0469 24.681 22.6629 25.299C22.2849 25.917 21.7599 26.4 21.0879 26.748C20.4219 27.096 19.6569 27.27 18.7929 27.27ZM18.7929 25.227C19.4289 25.227 19.9449 25.053 20.3409 24.705C20.7429 24.357 20.9439 23.847 20.9439 23.175C20.9439 22.503 20.7459 21.993 20.3499 21.645C19.9539 21.291 19.4349 21.114 18.7929 21.114C18.1569 21.114 17.6439 21.291 17.2539 21.645C16.8639 21.993 16.6689 22.503 16.6689 23.175C16.6689 23.847 16.8639 24.357 17.2539 24.705C17.6439 25.053 18.1569 25.227 18.7929 25.227ZM18.7929 19.053C19.3269 19.053 19.7589 18.921 20.0889 18.657C20.4249 18.387 20.5929 17.979 20.5929 17.433C20.5929 16.887 20.4249 16.482 20.0889 16.218C19.7589 15.948 19.3269 15.813 18.7929 15.813C18.2649 15.813 17.8329 15.948 17.4969 16.218C17.1669 16.482 17.0019 16.887 17.0019 17.433C17.0019 17.979 17.1669 18.387 17.4969 18.657C17.8329 18.921 18.2649 19.053 18.7929 19.053ZM28.6174 24.588V21.366H25.3954V19.665H28.6174V16.452H30.3184V19.665H33.5224V21.366H30.3184V24.588H28.6174Z" fill="#FEFEFE"/>
</svg>
