<svg width="20" height="16" viewBox="0 0 20 16" fill="none" xmlns="http://www.w3.org/2000/svg">
<path fill-rule="evenodd" clip-rule="evenodd" d="M5.34884 0C3.84654 0 2.48805 0.349085 1.50201 1.20035C0.506623 2.05969 0 3.33583 0 4.97297V11.027C0 12.6642 0.506623 13.9403 1.50201 14.7997C2.48805 15.6509 3.84654 16 5.34884 16H14.6512C16.1535 16 17.512 15.6509 18.498 14.7997C19.4934 13.9403 20 12.6642 20 11.027V4.97297C20 3.33583 19.4934 2.05969 18.498 1.20035C17.512 0.349085 16.1535 0 14.6512 0H5.34884ZM16.7242 4.85388C17.029 4.63485 17.0852 4.22748 16.8496 3.94401C16.614 3.66053 16.1759 3.6083 15.871 3.82735L10.7109 7.53436C10.2922 7.83524 9.70772 7.83524 9.28893 7.53436L4.12893 3.82735C3.82403 3.6083 3.38588 3.66053 3.15028 3.94401C2.91468 4.22748 2.97086 4.63485 3.27576 4.85388L8.43581 8.56095C9.35712 9.22275 10.6428 9.22275 11.5641 8.56095L16.7242 4.85388Z" fill="#6A6A6A"/>
</svg>
