<svg width="20" height="20" viewBox="0 0 20 20" fill="none" xmlns="http://www.w3.org/2000/svg">
<g clip-path="url(#clip0_2026_5193)">
<path d="M9.55983 0.920102C4.73252 1.14738 0.924339 5.13828 0.938884 9.93559C0.941275 11.3477 1.27936 12.739 1.92525 13.9947L0.96343 18.632C0.951693 18.6899 0.954766 18.7499 0.972366 18.8064C0.989957 18.8629 1.02151 18.914 1.0641 18.955C1.10669 18.996 1.15895 19.0258 1.21604 19.0412C1.27312 19.0568 1.33319 19.0576 1.3907 19.0438L5.96707 17.9674C7.17913 18.5664 8.50974 18.887 9.86165 18.9056C14.7953 18.981 18.908 15.092 19.0616 10.1965C19.2271 4.94647 14.8644 0.668288 9.55983 0.919193V0.920102ZM15.0207 14.8901C14.3611 15.5473 13.5784 16.0679 12.7173 16.422C11.8561 16.7761 10.9336 16.9569 10.0026 16.9538C8.90708 16.9571 7.82587 16.7056 6.84434 16.2192L6.20707 15.9038L3.4007 16.5638L3.99161 13.7174L3.67707 13.1065C3.16716 12.118 2.90274 11.0214 2.90616 9.90923C2.90616 8.02738 3.64434 6.25738 4.98434 4.92738C6.31997 3.60528 8.1232 2.86341 10.0026 2.86283C11.8989 2.86283 13.6807 3.59556 15.0207 4.92647C15.6808 5.57708 16.2047 6.35273 16.5617 7.2081C16.9186 8.06348 17.1016 8.98142 17.0998 9.90832C17.0998 11.7738 16.3498 13.571 15.0207 14.8901Z" fill="#6A6A6A"/>
<path d="M14.4018 11.8591L12.6463 11.3591C12.5331 11.3265 12.4132 11.3251 12.2991 11.3548C12.1851 11.3846 12.0811 11.4444 11.9981 11.5282L11.5691 11.9627C11.4803 12.0527 11.367 12.1145 11.2433 12.1404C11.1196 12.1664 10.991 12.1551 10.8736 12.1082C10.0436 11.7745 8.29632 10.2327 7.84996 9.4609C7.7874 9.3519 7.7588 9.22662 7.76788 9.10126C7.77695 8.97592 7.82326 8.85613 7.90087 8.75726L8.27541 8.27544C8.34752 8.18312 8.39315 8.07292 8.4074 7.95666C8.42165 7.8404 8.404 7.72244 8.35632 7.61544L7.61814 5.95726C7.5764 5.86458 7.51371 5.78284 7.43504 5.71848C7.35636 5.65411 7.26382 5.60889 7.1647 5.58633C7.0656 5.56378 6.9626 5.56451 6.86381 5.5885C6.76503 5.61248 6.67316 5.65904 6.59541 5.72453C6.10541 6.13635 5.5236 6.7609 5.4536 7.45453C5.32905 8.67544 5.85632 10.2145 7.85087 12.0636C10.1554 14.1991 12.0018 14.4818 13.2027 14.1918C13.8845 14.0282 14.43 13.3709 14.7727 12.8336C14.8273 12.7483 14.8612 12.6513 14.8715 12.5504C14.882 12.4496 14.8686 12.3477 14.8325 12.253C14.7964 12.1583 14.7387 12.0733 14.664 12.0049C14.5892 11.9364 14.4993 11.8865 14.4018 11.8591Z" fill="#6A6A6A"/>
</g>
<defs>
<clipPath id="clip0_2026_5193">
<rect width="20" height="20" fill="white"/>
</clipPath>
</defs>
</svg>
