<svg width="14" height="16" viewBox="0 0 14 16" fill="none" xmlns="http://www.w3.org/2000/svg">
<path fill-rule="evenodd" clip-rule="evenodd" d="M0.293623 2.46593C0 2.89622 0 4.17526 0 6.73332V7.99309C0 12.5035 3.29697 14.6924 5.36555 15.6218C5.92668 15.8739 6.20724 16 7 16C7.79276 16 8.07332 15.8739 8.63445 15.6218C10.703 14.6924 14 12.5035 14 7.99309V6.73332C14 4.17526 14 2.89622 13.7064 2.46593C13.4128 2.03563 12.2435 1.62397 9.90507 0.800634L9.45955 0.643774C8.24057 0.214591 7.63108 0 7 0C6.36892 0 5.75943 0.214591 4.54045 0.643773L4.09493 0.800634C1.75647 1.62397 0.587247 2.03563 0.293623 2.46593ZM9.37957 6.79961C9.59414 6.55243 9.57327 6.17314 9.33295 5.95244C9.09264 5.73174 8.72388 5.75321 8.50931 6.00039L6.16667 8.69912L5.49069 7.92039C5.27612 7.67321 4.90736 7.65174 4.66705 7.87244C4.42673 8.09313 4.40586 8.47243 4.62043 8.71961L5.73154 9.99961C5.84221 10.1271 6.00049 10.2 6.16667 10.2C6.33284 10.2 6.49112 10.1271 6.6018 9.99961L9.37957 6.79961Z" fill="url(#paint0_linear_2015_3636)"/>
<defs>
<linearGradient id="paint0_linear_2015_3636" x1="7" y1="0" x2="7" y2="16" gradientUnits="userSpaceOnUse">
<stop stop-color="#1DD1A1"/>
<stop offset="1" stop-color="#10AC84"/>
</linearGradient>
</defs>
</svg>
