<svg width="18" height="18" viewBox="0 0 18 18" fill="none" xmlns="http://www.w3.org/2000/svg">
<path fill-rule="evenodd" clip-rule="evenodd" d="M9 18C4.75736 18 2.63604 18 1.31802 16.682C0 15.364 0 13.2426 0 9C0 4.75736 0 2.63604 1.31802 1.31802C2.63604 0 4.75736 0 9 0C13.2426 0 15.364 0 16.682 1.31802C18 2.63604 18 4.75736 18 9C18 13.2426 18 15.364 16.682 16.682C15.364 18 13.2426 18 9 18ZM5.8227 5.3727C5.5591 5.63631 5.5591 6.06369 5.8227 6.3273L8.5227 9.0273C8.78631 9.2909 9.21369 9.2909 9.4773 9.0273L12.1773 6.3273C12.4409 6.06369 12.4409 5.63631 12.1773 5.3727C11.9137 5.1091 11.4863 5.1091 11.2227 5.3727L9 7.59541L6.7773 5.3727C6.51369 5.1091 6.08631 5.1091 5.8227 5.3727ZM5.8227 8.9727C5.5591 9.23631 5.5591 9.66369 5.8227 9.9273L8.5227 12.6273C8.78631 12.8909 9.21369 12.8909 9.4773 12.6273L12.1773 9.9273C12.4409 9.66369 12.4409 9.23631 12.1773 8.9727C11.9137 8.7091 11.4863 8.7091 11.2227 8.9727L9 11.1954L6.7773 8.9727C6.51369 8.7091 6.08631 8.7091 5.8227 8.9727Z" fill="#EE5253"/>
</svg>
