<svg width="17" height="16" viewBox="0 0 17 16" fill="none" xmlns="http://www.w3.org/2000/svg">
<path d="M11.661 10.2646L11.2562 10.6908C11.2562 10.6908 10.2939 11.704 7.66722 8.93858C5.04055 6.17319 6.00285 5.16007 6.00285 5.16007L6.25779 4.89166C6.88584 4.23044 6.94505 3.16886 6.3971 2.39387L5.27623 0.808547C4.59803 -0.150667 3.28752 -0.277379 2.51018 0.541015L1.11498 2.0099C0.729537 2.4157 0.471246 2.94173 0.502567 3.52528C0.582698 5.01818 1.22064 8.23026 4.78032 11.9779C8.55524 15.9522 12.0972 16.1102 13.5456 15.9672C14.0037 15.922 14.4022 15.6749 14.7232 15.3369L15.9859 14.0075C16.8383 13.1101 16.598 11.5717 15.5074 10.944L13.8092 9.9665C13.0931 9.55434 12.2207 9.67542 11.661 10.2646Z" fill="#FEFEFE"/>
</svg>
