<svg width="16" height="16" viewBox="0 0 16 16" fill="none" xmlns="http://www.w3.org/2000/svg">
<path d="M9.38883 1.15865L10.7992 3.99742C10.919 4.20863 11.0812 4.39279 11.2757 4.53832C11.4701 4.68385 11.6926 4.78761 11.929 4.84308L14.4799 5.26964C16.1101 5.54158 16.4909 6.72955 15.3206 7.91646L13.3362 9.91597C13.1625 10.1129 13.0355 10.3464 12.9645 10.5991C12.8936 10.8519 12.8806 11.1174 12.9265 11.3759L13.4962 13.8521C13.9465 15.8047 12.9063 16.5703 11.1961 15.5434L8.80526 14.1144C8.56188 13.9855 8.29066 13.9182 8.01525 13.9182C7.73984 13.9182 7.46861 13.9855 7.22524 14.1144L4.8344 15.5434C3.12742 16.5597 2.08403 15.8047 2.53425 13.8521L3.10395 11.3759C3.14263 11.1147 3.12454 10.8482 3.05089 10.5946C2.97725 10.341 2.8498 10.1063 2.6772 9.90637L0.681107 7.9026C-0.492441 6.72955 -0.109437 5.53731 1.52179 5.25578L4.07266 4.82922C4.30934 4.77601 4.53217 4.67359 4.72664 4.52863C4.92111 4.38366 5.08287 4.1994 5.2014 3.98782L6.61499 1.14799C7.38206 -0.384435 8.62283 -0.384436 9.38883 1.15865Z" fill="url(#paint0_linear_2015_3633)"/>
<defs>
<linearGradient id="paint0_linear_2015_3633" x1="8" y1="0" x2="8" y2="16" gradientUnits="userSpaceOnUse">
<stop stop-color="#FECA57"/>
<stop offset="1" stop-color="#FF9F43"/>
</linearGradient>
</defs>
</svg>
