<svg width="40" height="40" viewBox="0 0 40 40" fill="none" xmlns="http://www.w3.org/2000/svg">
<rect width="40" height="40" rx="8" fill="url(#paint0_linear_2015_3663)"/>
<g clip-path="url(#clip0_2015_3663)">
<path d="M19.5598 10.9201C14.7325 11.1474 10.9243 15.1383 10.9389 19.9356C10.9413 21.3477 11.2794 22.739 11.9252 23.9947L10.9634 28.632C10.9517 28.6899 10.9548 28.7499 10.9724 28.8064C10.99 28.8629 11.0215 28.914 11.0641 28.955C11.1067 28.996 11.1589 29.0258 11.216 29.0412C11.2731 29.0568 11.3332 29.0576 11.3907 29.0438L15.9671 27.9674C17.1791 28.5664 18.5097 28.887 19.8616 28.9056C24.7953 28.981 28.908 25.092 29.0616 20.1965C29.2271 14.9465 24.8644 10.6683 19.5598 10.9192V10.9201ZM25.0207 24.8901C24.3611 25.5473 23.5784 26.0679 22.7173 26.422C21.8561 26.7761 20.9336 26.9569 20.0026 26.9538C18.9071 26.9571 17.8259 26.7056 16.8443 26.2192L16.2071 25.9038L13.4007 26.5638L13.9916 23.7174L13.6771 23.1065C13.1672 22.118 12.9027 21.0214 12.9062 19.9092C12.9062 18.0274 13.6443 16.2574 14.9843 14.9274C16.32 13.6053 18.1232 12.8634 20.0026 12.8628C21.8989 12.8628 23.6807 13.5956 25.0207 14.9265C25.6808 15.5771 26.2047 16.3527 26.5617 17.2081C26.9186 18.0635 27.1016 18.9814 27.0998 19.9083C27.0998 21.7738 26.3498 23.571 25.0207 24.8901Z" fill="#FEFEFE"/>
<path d="M24.4017 21.859L22.6463 21.359C22.533 21.3264 22.4131 21.325 22.299 21.3547C22.185 21.3845 22.081 21.4443 21.9981 21.528L21.569 21.9626C21.4803 22.0526 21.3669 22.1144 21.2433 22.1403C21.1195 22.1662 20.9909 22.155 20.8735 22.108C20.0435 21.7744 18.2963 20.2326 17.8499 19.4608C17.7873 19.3518 17.7587 19.2265 17.7678 19.1011C17.7769 18.9758 17.8232 18.856 17.9008 18.7571L18.2754 18.2753C18.3475 18.183 18.3931 18.0728 18.4073 17.9565C18.4216 17.8403 18.4039 17.7223 18.3563 17.6153L17.6181 15.9571C17.5763 15.8645 17.5137 15.7827 17.435 15.7184C17.3563 15.654 17.2638 15.6088 17.1646 15.5862C17.0655 15.5637 16.9625 15.5644 16.8638 15.5884C16.765 15.6124 16.6731 15.6589 16.5954 15.7244C16.1054 16.1362 15.5235 16.7608 15.4535 17.4544C15.329 18.6753 15.8563 20.2144 17.8508 22.0635C20.1554 24.199 22.0017 24.4817 23.2026 24.1917C23.8845 24.028 24.4299 23.3708 24.7726 22.8335C24.8273 22.7481 24.8611 22.6511 24.8715 22.5503C24.8819 22.4495 24.8685 22.3476 24.8325 22.2529C24.7964 22.1581 24.7386 22.0731 24.6639 22.0048C24.5891 21.9363 24.4993 21.8864 24.4017 21.859Z" fill="#FEFEFE"/>
</g>
<defs>
<linearGradient id="paint0_linear_2015_3663" x1="20" y1="0" x2="20" y2="40" gradientUnits="userSpaceOnUse">
<stop stop-color="#EE5253"/>
<stop offset="1" stop-color="#FF6B6B"/>
</linearGradient>
<clipPath id="clip0_2015_3663">
<rect width="20" height="20" fill="white" transform="translate(10 10)"/>
</clipPath>
</defs>
</svg>
