<svg width="18" height="18" viewBox="0 0 18 18" fill="none" xmlns="http://www.w3.org/2000/svg">
<path d="M7.2 13.725C6.57868 13.725 6.075 13.2213 6.075 12.6C6.075 11.9787 6.57868 11.475 7.2 11.475C7.82132 11.475 8.325 11.9787 8.325 12.6C8.325 13.2213 7.82132 13.725 7.2 13.725Z" fill="#6A6A6A"/>
<path d="M11.925 5.4C11.925 6.02132 11.4213 6.525 10.8 6.525C10.1787 6.525 9.675 6.02132 9.675 5.4C9.675 4.77868 10.1787 4.275 10.8 4.275C11.4213 4.275 11.925 4.77868 11.925 5.4Z" fill="#6A6A6A"/>
<path fill-rule="evenodd" clip-rule="evenodd" d="M0 9C0 4.75736 0 2.63604 1.31802 1.31802C2.63604 0 4.75736 0 9 0C13.2426 0 15.364 0 16.682 1.31802C18 2.63604 18 4.75736 18 9C18 13.2426 18 15.364 16.682 16.682C15.364 18 13.2426 18 9 18C4.75736 18 2.63604 18 1.31802 16.682C0 15.364 0 13.2426 0 9ZM7.2 15.075C5.8331 15.075 4.725 13.9669 4.725 12.6C4.725 11.2331 5.83309 10.125 7.2 10.125C8.5669 10.125 9.675 11.2331 9.675 12.6C9.675 13.9669 8.56691 15.075 7.2 15.075ZM13.275 5.4C13.275 6.7669 12.1669 7.875 10.8 7.875C9.43309 7.875 8.325 6.7669 8.325 5.4C8.325 4.0331 9.43309 2.925 10.8 2.925C12.1669 2.925 13.275 4.03309 13.275 5.4ZM10.125 12.6C10.125 12.2272 10.4272 11.925 10.8 11.925H15.3C15.6728 11.925 15.975 12.2272 15.975 12.6C15.975 12.9728 15.6728 13.275 15.3 13.275H10.8C10.4272 13.275 10.125 12.9728 10.125 12.6ZM7.2 4.725C7.57279 4.725 7.875 5.02721 7.875 5.4C7.875 5.77279 7.57279 6.075 7.2 6.075L2.7 6.075C2.32721 6.075 2.025 5.77279 2.025 5.4C2.025 5.02721 2.32721 4.725 2.7 4.725L7.2 4.725ZM2.025 12.6C2.025 12.2272 2.32721 11.925 2.7 11.925H3.6C3.97279 11.925 4.275 12.2272 4.275 12.6C4.275 12.9728 3.97279 13.275 3.6 13.275H2.7C2.32721 13.275 2.025 12.9728 2.025 12.6ZM15.3 4.725C15.6728 4.725 15.975 5.02721 15.975 5.4C15.975 5.77279 15.6728 6.075 15.3 6.075H14.4C14.0272 6.075 13.725 5.77279 13.725 5.4C13.725 5.02721 14.0272 4.725 14.4 4.725H15.3Z" fill="#6A6A6A"/>
</svg>
