<svg width="18" height="18" viewBox="0 0 18 18" fill="none" xmlns="http://www.w3.org/2000/svg">
<path d="M15.4884 9.32177C15.4884 10.0591 14.9261 10.6569 14.2326 10.6569C13.539 10.6569 12.9767 10.0591 12.9767 9.32177C12.9767 8.58441 13.539 7.98667 14.2326 7.98667C14.9261 7.98667 15.4884 8.58441 15.4884 9.32177Z" fill="#6A6A6A"/>
<path fill-rule="evenodd" clip-rule="evenodd" d="M14.8027 0.0692706C13.8493 -0.244905 12.9767 0.556067 12.9767 1.53478V4.9696C11.8096 5.20832 10.4526 5.34644 9 5.34644C7.54739 5.34644 6.19043 5.20832 5.02326 4.9696V1.53478C5.02326 0.556067 4.15074 -0.244905 3.19727 0.0692706C2.314 0.360315 1.54971 0.729725 0.992544 1.17707C0.445082 1.61662 0 2.21556 0 2.96666V14.2851C0 14.4891 0.0336409 14.6838 0.0936454 14.8674C0.14749 15.0322 0.222563 15.1881 0.313606 15.3337C0.604686 15.7993 1.07024 16.1808 1.60974 16.4928C2.15703 16.8092 2.82513 17.0796 3.5754 17.3003C5.07652 17.7416 6.96301 18 9 18C10.7109 18 12.3135 17.8178 13.67 17.499C15.0136 17.1833 16.1657 16.7222 16.9369 16.1301C17.1245 15.9861 17.3015 15.8245 17.4554 15.6455C17.7791 15.2688 18 14.8149 18 14.2851V2.96666C18 2.21556 17.5549 1.61662 17.0075 1.17707C16.4503 0.729725 15.686 0.360315 14.8027 0.0692706ZM16.7442 4.9515C16.72 4.96815 16.6956 4.98456 16.6712 5.00073C15.9312 5.49009 14.9149 5.8818 13.743 6.16322C12.3709 6.49273 10.7414 6.68153 9 6.68153C7.25855 6.68153 5.62906 6.49273 4.257 6.16322C3.08511 5.8818 2.06878 5.49009 1.32881 5.00073C1.30436 4.98456 1.28002 4.96815 1.25581 4.9515V13.6319L3.80346 11.0973L4.9521 10.0752C5.78696 9.33226 7.03774 9.37302 7.82497 10.1736L10.6054 13.0013C10.8353 13.2351 11.2098 13.2714 11.4831 13.0761L11.6763 12.9379C12.6509 12.2414 13.9656 12.3198 14.8552 13.1341L16.5662 14.7001C16.7064 14.5223 16.7442 14.3806 16.7442 14.2851V4.9515Z" fill="#6A6A6A"/>
</svg>
