<svg width="24" height="24" viewBox="0 0 24 24" fill="none" xmlns="http://www.w3.org/2000/svg">
<path d="M11.4717 1.10403C5.67888 1.37675 1.10906 6.16584 1.12651 11.9226C1.12938 13.6171 1.53508 15.2867 2.31015 16.7935L1.15597 22.3583C1.14189 22.4277 1.14557 22.4997 1.16669 22.5676C1.1878 22.6353 1.22567 22.6967 1.27678 22.746C1.32789 22.7952 1.39059 22.8308 1.4591 22.8494C1.5276 22.868 1.59969 22.869 1.6687 22.8524L7.16033 21.5608C8.61481 22.2796 10.2115 22.6643 11.8338 22.6866C17.7542 22.7772 22.6895 18.1103 22.8738 12.2357C23.0724 5.93566 17.8371 0.801848 11.4717 1.10293V1.10403ZM18.0247 17.8681C17.2332 18.6567 16.2939 19.2813 15.2606 19.7064C14.2272 20.1313 13.1202 20.3481 12.0029 20.3444C10.6883 20.3485 9.39089 20.0466 8.21306 19.463L7.44833 19.0844L4.0807 19.8764L4.78979 16.4608L4.41233 15.7277C3.80044 14.5416 3.48314 13.2256 3.48724 11.891C3.48724 9.63275 4.37306 7.50875 5.98106 5.91275C7.58382 4.32624 9.7477 3.436 12.0029 3.4353C14.2786 3.4353 16.4167 4.31457 18.0247 5.91166C18.8169 6.6924 19.4455 7.62318 19.8739 8.64963C20.3022 9.67607 20.5218 10.7776 20.5196 11.8899C20.5196 14.1284 19.6196 16.2852 18.0247 17.8681Z" fill="#FEFEFE"/>
<path d="M17.2819 14.231L15.1754 13.631C15.0394 13.592 14.8955 13.5902 14.7586 13.6259C14.6218 13.6617 14.497 13.7335 14.3975 13.8339L13.8826 14.3554C13.7762 14.4634 13.6401 14.5376 13.4918 14.5687C13.3433 14.5998 13.1889 14.5862 13.0481 14.5299C12.0521 14.1296 9.95534 12.2794 9.41971 11.3532C9.34463 11.2224 9.31032 11.0721 9.32121 10.9217C9.3321 10.7713 9.38767 10.6275 9.4808 10.5089L9.93025 9.93068C10.0168 9.81989 10.0715 9.68766 10.0886 9.54814C10.1057 9.40862 10.0846 9.26708 10.0273 9.13868L9.14153 7.14886C9.09143 7.03764 9.01621 6.93956 8.92181 6.86232C8.82739 6.78508 8.71634 6.73081 8.5974 6.70375C8.47847 6.67668 8.35487 6.67756 8.23633 6.70634C8.11779 6.73512 8.00755 6.791 7.91425 6.86959C7.32625 7.36377 6.62807 8.11322 6.54407 8.94559C6.39462 10.4107 7.02734 12.2576 9.4208 14.4765C12.1863 17.039 14.4019 17.3783 15.843 17.0303C16.6612 16.834 17.3157 16.0452 17.727 15.4005C17.7926 15.2981 17.8331 15.1817 17.8456 15.0607C17.8581 14.9397 17.8421 14.8174 17.7988 14.7037C17.7555 14.5901 17.6862 14.4881 17.5965 14.406C17.5067 14.3239 17.399 14.264 17.2819 14.231Z" fill="#FEFEFE"/>
</svg>
